<?xml version="1.0" standalone="no"?>
<!DOCTYPE svg PUBLIC "-//W3C//DTD SVG 20010904//EN"
 "http://www.w3.org/TR/2001/REC-SVG-20010904/DTD/svg10.dtd">
<svg version="1.0" xmlns="http://www.w3.org/2000/svg"
 width="400.000000pt" height="400.000000pt" viewBox="0 0 400.000000 400.000000"
 preserveAspectRatio="xMidYMid meet">
<metadata>
Created by potrace 1.11, written by Peter Selinger 2001-2013
</metadata>
<g transform="translate(0.000000,400.000000) scale(0.100000,-0.100000)"
fill="#000000" stroke="none">
<path d="M0 3210 l0 -790 223 -3 222 -2 -222 -3 -223 -2 0 -840 0 -840 438 -3
437 -2 -437 -3 -438 -2 0 -360 0 -360 39 0 c36 0 41 4 65 44 89 152 266 270
507 339 139 40 137 40 149 16 7 -11 10 -23 7 -25 -3 -3 -40 -13 -84 -24 -113
-27 -233 -73 -306 -116 -72 -44 -167 -131 -209 -191 l-29 -43 851 0 850 0 -55
50 c-127 115 -229 246 -292 375 -24 48 -29 70 -25 108 2 26 7 47 11 47 4 0 32
-9 62 -20 82 -28 164 -39 359 -46 274 -10 481 11 615 63 10 3 15 -11 20 -50 7
-51 4 -59 -35 -128 -62 -110 -142 -209 -248 -309 l-96 -90 863 0 c832 0 861 1
852 18 -18 35 -105 124 -156 162 -100 74 -224 124 -400 161 -60 12 -112 24
-114 25 -2 2 4 15 13 29 21 31 35 31 163 0 266 -64 441 -176 533 -339 27 -48
36 -56 61 -56 l29 0 0 2000 0 2000 -877 -1 c-878 0 -878 0 -806 -19 71 -19
205 -71 233 -91 13 -9 13 -10 0 -5 -283 95 -339 106 -620 113 -192 5 -219 4
-249 -11 -51 -27 -116 -91 -136 -136 -22 -48 -31 -48 -11 1 21 50 54 88 104
120 l45 29 -841 0 -842 0 0 -790z m1440 750 c-25 -16 -60 -46 -79 -67 -32 -36
-32 -36 -11 -5 22 33 106 101 125 102 6 0 -10 -13 -35 -30z m301 -302 c49 -36
89 -49 176 -58 l78 -9 -92 3 c-82 2 -96 5 -139 32 -51 32 -98 85 -109 124 -4
16 4 9 23 -21 16 -26 45 -57 63 -71z m1264 -98 c78 -90 143 -211 159 -300 5
-23 -3 -10 -22 35 -51 122 -124 234 -227 345 l-50 55 50 -44 c28 -25 68 -66
90 -91z m-2262 -37 c-40 -2 -107 -2 -150 0 -43 1 -10 3 72 3 83 0 118 -2 78
-3z m352 -55 c-136 -75 -217 -298 -232 -645 -3 -79 -10 -143 -15 -143 -13 0
-9 287 7 395 29 203 99 335 207 388 37 18 64 23 33 5z m1391 -52 c140 -37 296
-167 386 -322 113 -193 197 -485 223 -775 l7 -76 -33 -14 c-86 -35 -199 -107
-254 -163 -116 -117 -178 -307 -216 -660 -14 -134 -14 -134 -74 -15 -64 126
-89 145 -242 178 -153 34 -200 32 -248 -10 l-36 -32 -29 28 c-41 39 -80 44
-192 24 -209 -37 -224 -47 -302 -191 -26 -48 -51 -90 -56 -93 -6 -4 -10 14
-10 44 0 60 -42 310 -74 442 -52 211 -139 315 -354 423 -40 20 -70 40 -68 45
3 4 15 120 26 257 36 435 89 606 229 737 114 107 206 129 491 121 215 -7 229
-5 460 46 104 23 292 26 366 6z m450 -38 c90 -96 164 -226 214 -377 40 -119
37 -137 -4 -31 -67 170 -157 328 -238 417 -24 25 -34 41 -23 35 11 -6 34 -25
51 -44z m461 -910 c-2 -29 -3 -8 -3 47 0 55 1 79 3 53 2 -26 2 -71 0 -100z
m-109 -21 c48 -44 63 -157 38 -298 -15 -83 -47 -154 -111 -244 -40 -56 -75
-117 -75 -129 0 -3 118 -7 263 -9 l262 -2 -266 -3 -266 -2 -18 -40 c-10 -22
-20 -39 -21 -37 -2 2 3 73 11 158 8 85 15 212 15 283 0 135 11 183 70 309 20
42 25 46 49 41 14 -4 36 -16 49 -27z m-2504 -10 c14 -18 41 -67 59 -107 34
-74 34 -77 40 -262 4 -103 12 -230 18 -283 6 -53 9 -99 6 -102 -3 -3 -24 33
-46 80 -21 47 -59 114 -84 149 -90 128 -117 208 -117 351 0 98 12 145 45 181
32 34 49 33 79 -7z m2593 -279 c-3 -7 -5 -2 -5 12 0 14 2 19 5 13 2 -7 2 -19
0 -25z m216 -265 c-40 -2 -107 -2 -150 0 -43 1 -10 3 72 3 83 0 118 -2 78 -3z
m-3030 -766 l392 -2 -397 -3 -398 -2 2 268 3 267 2 -262 3 -263 393 -3z m1750
226 c102 -47 102 -170 0 -237 -43 -29 -222 -100 -230 -92 -7 7 49 100 100 168
l39 51 -34 -7 c-94 -20 -198 -25 -287 -15 -53 6 -99 13 -103 15 -17 11 -6 -8
42 -73 45 -63 88 -143 75 -143 -20 0 -216 86 -243 107 -59 44 -77 133 -39 184
44 58 103 68 397 66 219 -2 238 -3 283 -24z m634 -360 c-2 -27 -3 -5 -3 47 0
52 1 74 3 48 2 -27 2 -69 0 -95z m-1994 50 c-78 -2 -208 -2 -290 0 -81 1 -17
3 142 3 160 0 226 -2 148 -3z m127 -458 c0 -7 -110 -61 -155 -75 -53 -17 -73
-36 -81 -76 -9 -50 -29 -62 -54 -33 -27 33 -25 80 5 113 33 36 64 46 143 47
54 0 102 10 140 28 1 0 2 -1 2 -4z m2003 -10 c72 -7 101 -25 121 -76 17 -43
13 -60 -21 -92 -19 -16 -21 -15 -52 53 l-33 69 -81 26 c-45 15 -84 29 -87 32
-2 2 18 2 45 -1 28 -3 76 -8 108 -11z m-2370 -52 c-34 -2 -93 -2 -130 0 -37 2
-9 3 62 3 72 0 102 -1 68 -3z m3135 -240 l-2 -88 -3 82 -4 82 -137 4 -137 3
143 2 142 2 -2 -87z"/>
<path d="M1374 2660 c-127 -19 -215 -72 -255 -154 l-21 -41 33 36 c85 91 216
110 504 73 72 -10 143 -14 157 -11 31 8 44 35 26 53 -28 29 -344 60 -444 44z"/>
<path d="M2400 2658 c-52 -4 -122 -14 -155 -21 -54 -11 -60 -15 -63 -39 -5
-40 25 -43 197 -24 209 23 229 24 300 14 82 -11 145 -39 187 -84 33 -35 34
-35 23 -7 -32 85 -128 145 -262 163 -87 11 -91 11 -227 -2z"/>
<path d="M1345 2441 c-72 -12 -89 -18 -112 -44 -17 -19 -18 -25 -7 -47 l14
-25 0 26 c0 51 65 79 185 79 l70 0 -35 -18 c-49 -24 -76 -80 -60 -126 6 -18
21 -42 33 -52 22 -19 22 -19 5 1 -19 22 -18 57 1 63 15 5 42 -29 34 -42 -4 -5
-1 -6 5 -2 7 4 12 2 12 -4 0 -7 14 -4 36 9 39 23 54 26 54 10 0 -5 -4 -8 -9
-5 -5 3 -8 -2 -7 -11 0 -10 -5 -18 -11 -19 -7 -1 -14 -2 -15 -4 -2 -1 -13 -3
-25 -4 -38 -4 -39 -16 -2 -16 52 1 99 48 99 101 0 19 -2 20 -16 8 -10 -8 -12
-15 -5 -17 20 -7 12 -20 -9 -15 -11 3 -20 14 -20 24 0 11 -11 29 -25 41 -53
46 -17 79 41 37 l29 -21 -28 26 c-34 31 -28 32 54 6 35 -10 65 -17 68 -15 2 3
-22 17 -54 31 -48 22 -76 28 -154 30 -53 1 -119 -1 -146 -5z"/>
<path d="M2435 2444 c-63 -16 -115 -37 -125 -49 -9 -10 3 -9 44 5 30 11 64 20
75 20 17 0 16 -4 -10 -29 -23 -24 -29 -38 -29 -75 0 -24 5 -48 10 -51 6 -3 10
0 10 7 0 7 9 19 20 26 17 10 20 10 20 -3 0 -8 11 -22 24 -30 19 -13 28 -14 50
-4 37 17 37 74 1 91 -31 14 -33 48 -3 56 21 5 21 6 2 13 -30 12 94 10 146 -2
55 -12 80 -34 81 -68 l0 -26 10 24 c6 16 14 21 27 16 10 -4 6 5 -12 24 -17 17
-46 36 -65 41 -41 12 -245 22 -276 14z"/>
<path d="M2583 2315 c-10 -11 -10 -15 0 -18 7 -3 4 -6 -6 -6 -10 -1 -15 -5
-12 -11 3 -5 1 -10 -5 -10 -7 0 -10 -7 -6 -15 3 -8 1 -15 -4 -15 -6 0 -10 5
-10 12 0 6 -6 4 -13 -7 -8 -10 -18 -15 -23 -12 -6 3 -15 -2 -21 -12 -10 -17
-8 -17 28 -11 47 9 68 25 86 67 21 51 14 70 -14 38z"/>
</g>
</svg>
